<?xml version="1.0" encoding="UTF-8"?>
<svg width="512" height="512" viewBox="0 0 512 512" xmlns="http://www.w3.org/2000/svg">
  <path fill="#10b981" d="M256 48C141.1 48 48 141.1 48 256s93.1 208 208 208 208-93.1 208-208S370.9 48 256 48zm76.8 132.6c-16.9 0-33 5.3-47.1 13.6-14.1 8.3-26.3 19.6-36.3 32.7-10-13.1-22.2-24.4-36.3-32.7-14.1-8.3-30.2-13.6-47.1-13.6h-.5v.5c0 16.9 5.3 33 13.6 47.1 8.3 14.1 19.6 26.3 32.7 36.3-13.1 10-24.4 22.2-32.7 36.3-8.3 14.1-13.6 30.2-13.6 47.1v.5h.5c16.9 0 33-5.3 47.1-13.6 14.1-8.3 26.3-19.6 36.3-32.7 10 13.1 22.2 24.4 36.3 32.7 14.1 8.3 30.2 13.6 47.1 13.6h.5v-.5c0-16.9-5.3-33-13.6-47.1-8.3-14.1-19.6-26.3-32.7-36.3 13.1-10 24.4-22.2 32.7-36.3 8.3-14.1 13.6-30.2 13.6-47.1v-.5h-.5z"/>
</svg>